<?xml version="1.0" encoding="UTF-8"?>
<svg version="1.1" xmlns="http://www.w3.org/2000/svg" width="500" height="500">
<path d="M0 0 C26.644014 -0.07028017 53.28801397 -0.12308093 79.9321022 -0.15543652 C92.30518962 -0.17086335 104.67821923 -0.19187233 117.05126953 -0.22631836 C127.84364957 -0.25634938 138.63598772 -0.27560535 149.42840838 -0.28226548 C155.13560601 -0.28615465 160.84268384 -0.29520622 166.54984283 -0.31719017 C171.93752172 -0.33777249 177.32503311 -0.34379054 182.71274757 -0.33932304 C184.6749011 -0.34013863 186.63706108 -0.34597325 188.59918022 -0.35761642 C229.5934456 -0.58864462 265.76101066 12.89458644 295.1875 41.75 C314.84645487 61.63195035 327.45718662 86.70547202 333 114 C333.26707764 115.31013062 333.26707764 115.31013062 333.53955078 116.64672852 C337.2198314 136.41795905 336.22927546 157.6081035 331 177 C330.79632813 177.76666992 330.59265625 178.53333984 330.3828125 179.32324219 C324.06595298 202.22185794 311.3702562 222.02083585 295 239 C294.23300781 239.84175781 293.46601563 240.68351563 292.67578125 241.55078125 C275.79361445 259.5221201 252.3317556 271.53811837 228.63720703 277.60498047 C221.72895724 279.45834691 216.08795646 282.54484341 210 286.25 C207.90010346 287.49930974 205.79982867 288.74798388 203.69921875 289.99609375 C202.6117334 290.64690918 201.52424805 291.29772461 200.40380859 291.96826172 C195.13254293 295.11468783 189.84014274 298.22379607 184.53295898 301.3092041 C182.84067063 302.29607213 181.15368034 303.29200735 179.46679688 304.28808594 C178.43232422 304.89040039 177.39785156 305.49271484 176.33203125 306.11328125 C175.42171143 306.64735596 174.5113916 307.18143066 173.57348633 307.73168945 C171.00136657 308.9993265 168.80390884 309.49567722 166 310 C165.97687717 298.93465142 165.95908522 287.86930855 165.94818783 276.80394077 C165.94295887 271.66640434 165.93586099 266.52888437 165.92456055 261.39135742 C165.91373213 256.4376859 165.90772326 251.48403026 165.90512276 246.53034782 C165.90326843 244.63602384 165.89964766 242.74170076 165.89426994 240.8473835 C165.88706011 238.20365614 165.88600903 235.55999529 165.88647461 232.91625977 C165.88287933 232.12504227 165.87928406 231.33382477 165.87557983 230.51863098 C165.88594784 225.11405216 165.88594784 225.11405216 167 224 C169.01799707 223.86515076 171.04044515 223.79622236 173.0625 223.75390625 C174.32658691 223.72256592 175.59067383 223.69122559 176.89306641 223.65893555 C177.56412415 223.64357758 178.23518188 223.6282196 178.92657471 223.61239624 C205.27557585 222.97831692 229.53476739 220.51616284 250 202 C251.13695312 201.00226563 251.13695312 201.00226563 252.296875 199.984375 C267.58695554 185.74878278 275.94068764 165.74722402 277.24609375 145.109375 C277.68146746 120.21624286 269.45031504 99.07089519 252.4375 81 C234.12211157 63.12929474 210.75223138 57.765497 185.83227539 57.95336914 C184.40729531 57.96016943 182.98231231 57.96637892 181.55732727 57.9720459 C178.5017536 57.98444427 175.44620054 57.9990278 172.39064217 58.01472664 C167.5526091 58.0375603 162.71465322 58.04312657 157.87657166 58.04405212 C156.64860063 58.04432477 156.64860063 58.04432477 155.39582211 58.04460293 C152.02311996 58.04505236 148.65041796 58.04497087 145.2777158 58.0447675 C135.72400214 58.04503227 126.17094412 58.06185937 116.61743164 58.12670898 C109.01146948 58.17822066 101.40635339 58.19431984 93.80024523 58.16924757 C89.78136456 58.15733295 85.76429243 58.16307863 81.74565315 58.21193123 C77.96491088 58.25751256 74.18704316 58.25594656 70.40623283 58.21918488 C69.02477521 58.2139428 67.64312652 58.2255751 66.26199341 58.25597191 C55.87070715 58.470501 55.87070715 58.470501 51.29149342 54.87093258 C49.01073796 52.34690691 46.99271847 49.75441349 45 47 C43.37126472 45.29469996 41.72930261 43.601705 40.06274414 41.93334961 C39.20898697 41.07644028 38.3552298 40.21953094 37.4756012 39.33665466 C36.58775436 38.45083206 35.69990753 37.56500946 34.78515625 36.65234375 C33.83859473 35.70510632 32.89218149 34.75772068 31.94590759 33.81019592 C29.98532844 31.84815905 28.02299386 29.88790069 26.05932617 27.92895508 C23.54188794 25.41727664 21.02905222 22.90104835 18.51746464 20.38352108 C16.10911539 17.97070411 13.69698033 15.56168738 11.28515625 13.15234375 C10.3831398 12.24830307 9.48112335 11.34426239 8.55177307 10.41282654 C7.72008102 9.58428665 6.88838898 8.75574677 6.03149414 7.90209961 C4.93303917 6.80483803 4.93303917 6.80483803 3.81239319 5.68540955 C2.09603342 3.93068278 2.09603342 3.93068278 0 3 C0 2.01 0 1.02 0 0 Z " fill="#28CB8E" transform="translate(114,75)"/>
<path d="M0 0 C0.77070328 -0.0033284 1.54140656 -0.0066568 2.33546448 -0.01008606 C3.96883546 -0.01515835 5.60221685 -0.01749429 7.2355957 -0.01733398 C9.73991924 -0.01951905 12.24380146 -0.0376672 14.74804688 -0.05664062 C16.33202974 -0.05957472 17.9160147 -0.06155941 19.5 -0.0625 C20.25212265 -0.06968552 21.0042453 -0.07687103 21.77915955 -0.08427429 C27.08758346 -0.06085404 27.08758346 -0.06085404 29.31640625 2.16796875 C29.56250191 4.60049629 29.56250191 4.60049629 29.55691528 7.72341919 C29.55966461 8.90415009 29.56241394 10.08488098 29.56524658 11.3013916 C29.55805603 12.60330444 29.55086548 13.90521729 29.54345703 15.24658203 C29.54289312 16.62616976 29.54320909 18.00575808 29.54434204 19.38534546 C29.54491733 23.13722575 29.53313472 26.8889789 29.51919413 30.64082956 C29.50671595 34.55928311 29.50551857 38.47773937 29.50314331 42.39620972 C29.49691995 49.81935806 29.4804976 57.24244769 29.46044433 64.66557014 C29.43393845 74.69433325 29.4231196 84.72311234 29.4114399 94.75190163 C29.39261758 110.55730133 29.35277764 126.36257714 29.31640625 142.16796875 C53.07640625 142.16796875 76.83640625 142.16796875 101.31640625 142.16796875 C101.31640625 96.95796875 101.31640625 51.74796875 101.31640625 5.16796875 C138.06829534 4.96645358 138.06829534 4.96645358 153.48632812 4.92382812 C164.12601796 4.89417665 174.7655096 4.85934632 185.4050293 4.79077148 C193.15426523 4.7408493 200.90334015 4.7086571 208.65273243 4.69752628 C212.75397084 4.69102235 216.85474872 4.67579627 220.95583916 4.63931847 C224.82107103 4.60521916 228.68565548 4.59494351 232.55102348 4.60243034 C233.96471686 4.60106197 235.37843331 4.59121207 236.791996 4.57194138 C247.57007808 4.43229319 254.08384781 6.28675817 262.12890625 13.41796875 C267.76687907 19.46145702 270.4447082 26.92813232 270.31640625 35.16796875 C269.26350723 44.78984596 264.78455886 52.14872994 257.31640625 58.16796875 C248.25670759 63.97885681 237.16250911 62.67298199 226.87109375 62.55859375 C224.88998997 62.55112273 222.90887874 62.54543387 220.92776489 62.54144287 C215.74254541 62.5262543 210.5577823 62.48703158 205.3727417 62.44262695 C199.13600086 62.39428662 192.89910646 62.37610794 186.66223145 62.35281372 C177.21330676 62.31417599 167.76538117 62.2374749 158.31640625 62.16796875 C158.31640625 88.56796875 158.31640625 114.96796875 158.31640625 142.16796875 C161.94640625 142.16796875 165.57640625 142.16796875 169.31640625 142.16796875 C169.31640625 154.70796875 169.31640625 167.24796875 169.31640625 180.16796875 C166.01640625 180.49796875 162.71640625 180.82796875 159.31640625 181.16796875 C159.42750732 182.75029297 159.5386084 184.33261719 159.65307617 185.96289062 C162.47968121 230.98452718 162.47968121 230.98452718 156.02197266 240.11767578 C150.54708983 246.01169959 142.59113599 248.46684319 135.11230469 250.82958984 C128.73836093 252.92944092 123.17377016 256.61677237 117.44140625 260.04296875 C115.40817851 261.1965431 113.36951094 262.34061002 111.32421875 263.47265625 C110.4748877 263.94687012 109.62555664 264.42108398 108.75048828 264.90966797 C106.347048 266.15212847 103.82848625 267.16313675 101.31640625 268.16796875 C100.98640625 239.45796875 100.65640625 210.74796875 100.31640625 181.16796875 C92.61554688 181.10738281 84.9146875 181.04679688 76.98046875 180.984375 C72.1132754 180.9438989 67.2460879 180.903135 62.37890625 180.86132812 C54.64682965 180.79494072 46.91475424 180.72964196 39.18261719 180.6706543 C32.95158208 180.62305191 26.72060343 180.57071064 20.48963547 180.515028 C18.10771458 180.49458572 15.72577819 180.47587579 13.34383011 180.45889473 C10.01773708 180.43489217 6.69175151 180.40483195 3.36572266 180.37329102 C2.37238419 180.36753555 1.37904572 180.36178009 0.35560608 180.35585022 C-0.54745773 180.3460614 -1.45052155 180.33627258 -2.38095093 180.32618713 C-3.16816214 180.31973458 -3.95537334 180.31328203 -4.76643944 180.30663395 C-6.68359375 180.16796875 -6.68359375 180.16796875 -8.68359375 179.16796875 C-8.70692019 155.97692387 -8.72457167 132.78588092 -8.73540592 109.5948267 C-8.74056942 98.82761811 -8.74761315 88.06041681 -8.7590332 77.29321289 C-8.76897839 67.9121163 -8.77544678 58.53102498 -8.77768224 49.14992326 C-8.77898963 44.17946657 -8.78207725 39.20902495 -8.78932381 34.23857307 C-8.79608142 29.56588753 -8.79821124 24.89322334 -8.79670143 20.22053337 C-8.79697788 18.50035359 -8.79898453 16.78017313 -8.80279922 15.05999756 C-8.80773245 12.72190214 -8.80659343 10.38388871 -8.80384827 8.04579163 C-8.80477006 6.73408021 -8.80569185 5.42236879 -8.80664158 4.07090855 C-8.56858776 -1.54524829 -4.58114579 0.00675997 0 0 Z " fill="#F2F7F7" transform="translate(67.68359375,181.83203125)"/>
<path d="M0 0 C36.25034022 -0.1209091 36.25034022 -0.1209091 51.45898438 -0.14648438 C61.95373948 -0.16427452 72.44842224 -0.18517103 82.94311523 -0.22631836 C90.58687476 -0.25627346 98.2305755 -0.2755875 105.87439209 -0.28226548 C109.91961036 -0.28616741 113.96466051 -0.29530142 118.00982475 -0.31719017 C121.82241875 -0.33765203 125.63477642 -0.34381435 129.44742012 -0.33932304 C130.84174003 -0.34014393 132.23606838 -0.34605168 133.63034058 -0.35761642 C142.25270356 -0.4255867 150.19979354 -0.3307555 157.48828125 4.7265625 C164.20812869 11.71980845 168.15385508 19.1190846 168 29 C167.02373405 37.92156881 163.16262186 44.14786219 156.9765625 50.421875 C151.36458512 54.90258421 146.58840989 55.427357 139.68994141 55.34057617 C138.77222961 55.34101425 137.85451782 55.34145233 136.90899658 55.34190369 C133.88963199 55.33982139 130.87082955 55.31651653 127.8515625 55.29296875 C125.75263777 55.28737081 123.65370911 55.28310165 121.55477905 55.28010559 C116.04080307 55.26867242 110.5270656 55.23921822 105.01318359 55.20599365 C98.39187041 55.16985268 91.7704773 55.15612436 85.14909363 55.13863373 C75.09923006 55.10958016 65.04988945 55.05208196 55 55 C55 82.06 55 109.12 55 137 C36.85 137 18.7 137 0 137 C0 91.79 0 46.58 0 0 Z " fill="#172627" transform="translate(170,188)"/>
<path d="M0 0 C18.15 0 36.3 0 55 0 C55 19.14 55 38.28 55 58 C43.615 64.435 43.615 64.435 32 71 C27.61736759 73.53042063 23.23961435 76.06434553 18.875 78.625 C17.87597656 79.20894531 16.87695312 79.79289062 15.84765625 80.39453125 C10.56997016 83.46643659 10.56997016 83.46643659 5.37939453 86.68115234 C3 88 3 88 0 88 C0 58.96 0 29.92 0 0 Z " fill="#192829" transform="translate(170,361)"/>
</svg>
